<svg xmlns="http://www.w3.org/2000/svg" width="316" height="392" fill="none" viewBox="0 0 456 532">
  <path fill="#4F8E61" d="M79.876 435.126 19.602 131.937 252.485 15.195l192.51 311.717-138.093 169.306-227.026-61.092Z"/>
  <path fill="#FCC75F" d="M66.787 514.758h324.317L62.794 171.821s5.685 341.169 3.993 342.937Z"/>
  <path fill="#F6F4E7" d="m294.247 267.994 11.025-28.978-9.257 12.518 3.882-15.805-8.662 14.052 1.881-14.268-6.056 14.053.791-15.141-4.701 17.249.512 8.898-.574 6.021 11.159 1.401Z"/>
  <path fill="#000" d="m299.873 269.413-5.897 99.431c-.757 12.759-14.231 20.116-24.682 13.456l-40.709-25.892c4.814 41.496 11.799 93.396 11.799 93.396l-113.192 11.657-40.71-232.683a31.51 31.51 0 0 1 1.72-17.02l35.004-88.342 10.365 4.993-22.322 79.937 17.538 76.603 59.542-4.76-.22-.718 16.506-2.874 63.62 68.251 11.005-85.134 20.633 9.699Z"/>
  <path fill="#000" d="m357.483 228.373-206.062-89.554-41.216 103.477 206.062 89.554 41.216-103.477Z"/>
  <path stroke="#000" stroke-miterlimit="10" stroke-width="4" d="m348.795 184.718-132.083-57.403-15.126 37.975 132.083 57.403 15.126-37.975Z"/>
  <path fill="#D675E6" d="m371.449 234.443-206.062-89.554-41.216 103.477 206.062 89.554 41.216-103.477Z"/>
  <path fill="#FCC75F" d="M185.908 258.5c19.562 0 35.42-16.566 35.42-37s-15.858-36.999-35.42-36.999c-19.563 0-35.421 16.565-35.421 36.999s15.858 37 35.421 37Zm114.939 49.949c19.562 0 35.42-16.566 35.42-37s-15.858-36.999-35.42-36.999c-19.563 0-35.421 16.565-35.421 36.999s15.858 37 35.421 37Zm-41.136-52.192-35.434-15.289-8.364 21.151 35.435 15.288 8.363-21.15Zm93.725-21.473-176.852-76.859-3.699 9.286 176.852 76.859 3.699-9.286Z"/>
  <path fill="#4F8E61" d="M185.825 169.69c2.659 0 4.815-2.251 4.815-5.029 0-2.777-2.156-5.029-4.815-5.029-2.659 0-4.814 2.252-4.814 5.029 0 2.778 2.155 5.029 4.814 5.029Zm42.268 91.629c1.899 0 3.439-1.608 3.439-3.592s-1.54-3.592-3.439-3.592-3.439 1.608-3.439 3.592 1.54 3.592 3.439 3.592Zm17.146 7.454c1.9 0 3.439-1.608 3.439-3.592s-1.539-3.592-3.439-3.592c-1.899 0-3.439 1.608-3.439 3.592s1.54 3.592 3.439 3.592Z"/>
  <path fill="#FCC75F" d="m347.497 179.096-125.733-54.643-3.831 9.618 125.733 54.643 3.831-9.618Z"/>
  <path fill="#F6F4E7" d="m123.206 123.412 8.24-29.973v15.82l6.176-14.986-1.372 16.653 6.864-12.49-3.432 14.987 8.236-12.49-6.376 16.653 9.739-2.27-15.354 8.984-3.071 5.133-9.65-6.021Zm64.899 156.03-10.695 46.307-30.224-42.327 11.609-1.828 1.912-19.937.582-6.042 5.76-.643.626 2.849 4.989 22.752 15.441-1.131Z"/>
  <path fill="#000" d="m167.675 257.821-6.968 3.836.582-6.042 5.76-.643.626 2.849Z"/>
  <path fill="#D675E6" d="M265.096 522.251H129.602l-6.675-81.359a3.833 3.833 0 0 1-2.652-.877 4.155 4.155 0 0 1-1.436-2.489l-.162-.902a4.305 4.305 0 0 1 .02-1.608 4.217 4.217 0 0 1 .609-1.477 4.032 4.032 0 0 1 1.104-1.12 3.854 3.854 0 0 1 1.431-.594l113.828-21.941a3.819 3.819 0 0 1 2.954.658 4.147 4.147 0 0 1 1.644 2.647l.158.902a4.3 4.3 0 0 1-.022 1.607 4.217 4.217 0 0 1-.609 1.477 4.015 4.015 0 0 1-1.103 1.12 3.842 3.842 0 0 1-1.43.595l-.389.075 28.224 103.286Z"/>
  <path stroke="#000" stroke-miterlimit="10" stroke-width="4" d="m212.085 521.838-10.362-71.61"/>
  <path fill="#000" d="m123.206 440.651 113.99-21.646-113.643 27.566-.347-5.92Z"/>
  <path fill="#1E1E1E" d="M306.751 469.496c2.279 0 4.127-1.93 4.127-4.31 0-2.381-1.848-4.311-4.127-4.311s-4.127 1.93-4.127 4.311c0 2.38 1.848 4.31 4.127 4.31Z"/>
  <path fill="#D675E6" d="m47.385 256.326-6.905-4.027c4.93-9.239 4.391-13.696-12.583-39.944-9.709-15.019-6.827-27.66-2.7-35.631 2.783-5.262 6.6-9.849 11.2-13.46l4.543 6.764c-.853.632-20.712 15.705-6.489 37.718 16.101 24.872 20.647 34.133 12.934 48.58Z"/>
  <path fill="#F6F4E7" d="M164.122 255.841c6.484 0 11.741-5.49 11.741-12.263s-5.257-12.264-11.741-12.264-11.74 5.491-11.74 12.264 5.256 12.263 11.74 12.263Z"/>
  <path fill="#000" d="m150.8 246.171 3.212 5.999 2.479-10.83 19.213-4.088s1.778-11.52-5.337-16.334c-7.115-4.813-8.539-6.688-2.49-13.381 6.05-6.692 3.556-13.75-6.406-20.439-9.963-6.689-4.98-11.136-3.556-17.839l-22.061 9.631s4.247 16.933 9.251 20.069c7.115 4.458-4.98 16.352.712 19.326 5.691 2.975 9.973 11.136 5.337 15.238-4.636 4.102-.354 12.648-.354 12.648Z"/>
  <path stroke="#fff" stroke-miterlimit="10" stroke-width="4" d="m283.023 436.808 48.488-52.446 28.887 21.553-36.108 49.213-41.267-18.32Z"/>
  <path fill="#1E1E1E" d="M87.004 405.556c2.28 0 4.127-1.93 4.127-4.311 0-2.381-1.847-4.311-4.127-4.311-2.279 0-4.126 1.93-4.126 4.311 0 2.381 1.847 4.311 4.126 4.311Zm316.381 33.766c2.279 0 4.126-1.93 4.126-4.311 0-2.38-1.847-4.31-4.126-4.31-2.279 0-4.127 1.93-4.127 4.31 0 2.381 1.848 4.311 4.127 4.311ZM46.77 341.256c2.278 0 4.126-1.93 4.126-4.311 0-2.38-1.848-4.31-4.127-4.31s-4.127 1.93-4.127 4.31c0 2.381 1.848 4.311 4.127 4.311Zm259.981 128.24c2.279 0 4.127-1.93 4.127-4.31 0-2.381-1.848-4.311-4.127-4.311s-4.127 1.93-4.127 4.311c0 2.38 1.848 4.31 4.127 4.31Z"/>
  <path fill="#000" d="M316.38 62.903H208.536v39.474H316.38V62.903Z"/>
  <path fill="#D675E6" d="M312.804 60.708H204.959v39.474h107.845V60.708Z"/>
  <path stroke="#fff" stroke-miterlimit="10" stroke-width="4" d="m78.751 122.134-16.163 29.815 14.788 15.446 19.945-19.038-17.194-5.389 15.475-15.446-16.85-5.388Z"/>
  <path stroke="#D675E6" stroke-miterlimit="10" stroke-width="4" d="M417.14 251.811s-87.004 14.369-36.108 62.504c50.896 48.135 24.072 73.28-15.475 60.707"/>
  <path fill="#1E1E1E" d="M94.57 82.26c2.28 0 4.127-1.93 4.127-4.31s-1.848-4.31-4.127-4.31-4.126 1.93-4.126 4.31 1.847 4.31 4.126 4.31Z"/>
</svg>
